<?xml version="1.0" encoding="utf-8"?>
<!-- Generator: Adobe Illustrator 25.2.3, SVG Export Plug-In . SVG Version: 6.00 Build 0)  -->
<svg version="1.1" xmlns="http://www.w3.org/2000/svg" xmlns:xlink="http://www.w3.org/1999/xlink" x="0px" y="0px"
	 viewBox="0 0 120 120" style="enable-background:new 0 0 120 120;" xml:space="preserve">
<style type="text/css">
	.st0{display:none;}
	.st1{display:inline;}
	.st2{fill:url(#SVGID_1_);}
	.st3{display:inline;fill:url(#SVGID_2_);}
	.st4{display:inline;fill:url(#SVGID_3_);}
	.st5{display:inline;fill:url(#SVGID_4_);}
	.st6{display:none;fill:url(#SVGID_5_);}
	.st7{display:none;fill:url(#SVGID_6_);}
	.st8{display:inline;fill:url(#SVGID_7_);}
	.st9{display:inline;fill:url(#SVGID_8_);}
	.st10{display:inline;fill:url(#SVGID_9_);}
	.st11{display:inline;fill:url(#SVGID_10_);}
	.st12{display:inline;fill:url(#SVGID_11_);}
	.st13{display:inline;fill:url(#SVGID_12_);}
	.st14{fill:url(#SVGID_13_);}
</style>
<g id="Layer_1">
	<g class="st0">
		<g class="st1">
			<linearGradient id="SVGID_1_" gradientUnits="userSpaceOnUse" x1="103.5615" y1="14.2956" x2="5.1786" y2="124.5935">
				<stop  offset="4.102398e-07" style="stop-color:#FF7518"/>
				<stop  offset="0.1598" style="stop-color:#FF6D17"/>
				<stop  offset="0.5101" style="stop-color:#FF5F15"/>
				<stop  offset="1" style="stop-color:#FF4433"/>
			</linearGradient>
			<path class="st2" d="M109.5,36.8C109.4,36.7,109.4,36.7,109.5,36.8l-20.7-20c-0.2-0.2-0.4-0.3-0.6-0.4l-14.9-5.8
				c-1-0.4-2.1,0.2-2.5,1.3c-0.1,0.2-0.1,0.4-0.1,0.6c0,0.5-0.6,11.3-10.6,11.5c-10-0.2-10.6-11-10.6-11.5c-0.1-1.2-1-2.1-2.1-2
				c-0.2,0-0.4,0.1-0.5,0.1l-14.9,5.9c-0.2,0.1-0.5,0.2-0.6,0.4L10.7,36.7c-0.8,0.8-0.8,2.2-0.1,3c0,0,0,0.1,0.1,0.1l16.3,18v49.1
				c0,1.2,0.9,2.1,2,2.1h62.1c1.1,0,2-1,2-2.1V57.7l16.3-18C110.2,39,110.2,37.6,109.5,36.8z M93,51.7v-9.9c0-1.2-0.9-2.1-2-2.1
				s-2,1-2,2.1v62.9H30.9V41.7c0-1.2-0.9-2.1-2-2.1s-2,1-2,2.1v9.9L14.9,38.4l18.7-18.2l12.3-4.8c1.5,8.5,9.1,14.1,16.9,12.5
				c5.8-1.2,10.3-6.2,11.4-12.5l12.3,4.8l18.6,18.2L93,51.7z"/>
		</g>
	</g>
	<g class="st0">
		<linearGradient id="SVGID_2_" gradientUnits="userSpaceOnUse" x1="94.3862" y1="24.8241" x2="31.8809" y2="94.8993">
			<stop  offset="4.102398e-07" style="stop-color:#FF7518"/>
			<stop  offset="0.1598" style="stop-color:#FF6D17"/>
			<stop  offset="0.5101" style="stop-color:#FF5F15"/>
			<stop  offset="1" style="stop-color:#FF4433"/>
		</linearGradient>
		<path class="st3" d="M94.5,59.9c0-8-3-15.2-7.9-20.8c0,0,0-0.1,0-0.1l-4-12c-0.4-1.2-1.2-2.1-2.2-2.6v-10c0-2.6-2.1-4.7-4.7-4.7
			H50.6c-2.6,0-4.7,2.1-4.7,4.7v10c-1,0.6-1.8,1.5-2.2,2.6l-4,12c0,0,0,0.1,0,0.1c-2.9,3.3-5.1,7.1-6.4,11.4h-3
			c-2.6,0-4.7,2.1-4.7,4.7v9.4c0,2.6,2.1,4.7,4.7,4.7h3c1.3,4.2,3.6,8.1,6.4,11.4c0,0,0,0.1,0,0.1l4,12c0.4,1.2,1.2,2.1,2.2,2.6v10
			c0,2.6,2.1,4.7,4.7,4.7h25.1c2.6,0,4.7-2.1,4.7-4.7v-10c1-0.6,1.8-1.5,2.2-2.6l4-12c0,0,0-0.1,0-0.1
			C91.5,75.1,94.5,67.8,94.5,59.9z M46.7,28c0.2-0.6,0.8-1.1,1.5-1.1h19.7c0.9,0,1.6-0.7,1.6-1.6c0-0.9-0.7-1.6-1.6-1.6H49v-9.4
			c0-0.9,0.7-1.6,1.6-1.6h25.1c0.9,0,1.6,0.7,1.6,1.6v9.4h-3.1c-0.9,0-1.6,0.7-1.6,1.6c0,0.9,0.7,1.6,1.6,1.6h4
			c0.7,0,1.3,0.4,1.5,1.1l2.2,6.7c-5.2-3.9-11.7-6.2-18.7-6.2s-13.5,2.3-18.7,6.2L46.7,28z M30.2,66.1c-0.9,0-1.6-0.7-1.6-1.6v-9.4
			c0-0.9,0.7-1.6,1.6-1.6h2.2c-0.4,2-0.6,4.1-0.6,6.3s0.2,4.2,0.6,6.3H30.2z M63.1,31.7c15.6,0,28.2,12.7,28.2,28.2
			S78.7,88.1,63.1,88.1S34.9,75.4,34.9,59.9S47.6,31.7,63.1,31.7z M79.6,91.7c-0.2,0.6-0.8,1.1-1.5,1.1h-4c-0.9,0-1.6,0.7-1.6,1.6
			c0,0.9,0.7,1.6,1.6,1.6h3.1v9.4c0,0.9-0.7,1.6-1.6,1.6H50.6c-0.9,0-1.6-0.7-1.6-1.6v-9.4h18.8c0.9,0,1.6-0.7,1.6-1.6
			c0-0.9-0.7-1.6-1.6-1.6H48.2c-0.7,0-1.3-0.4-1.5-1.1L44.4,85c5.2,3.9,11.7,6.2,18.7,6.2c7,0,13.5-2.3,18.7-6.2L79.6,91.7z"/>
		<linearGradient id="SVGID_3_" gradientUnits="userSpaceOnUse" x1="79.7655" y1="41.2156" x2="46.4539" y2="78.5615">
			<stop  offset="4.102398e-07" style="stop-color:#FF7518"/>
			<stop  offset="0.1598" style="stop-color:#FF6D17"/>
			<stop  offset="0.5101" style="stop-color:#FF5F15"/>
			<stop  offset="1" style="stop-color:#FF4433"/>
		</linearGradient>
		<path class="st4" d="M63.1,84.9c13.8,0,25.1-11.2,25.1-25.1c0-5.5-1.7-10.7-5-15c-0.5-0.7-1.5-0.8-2.2-0.3
			c-0.7,0.5-0.8,1.5-0.3,2.2c2.6,3.4,4,7.4,4.3,11.6h-1.5c-0.9,0-1.6,0.7-1.6,1.6s0.7,1.6,1.6,1.6H85C84.2,72.3,75.5,81,64.7,81.7
			v-1.5c0-0.9-0.7-1.6-1.6-1.6s-1.6,0.7-1.6,1.6v1.5C50.7,81,42,72.3,41.3,61.4h1.5c0.9,0,1.6-0.7,1.6-1.6s-0.7-1.6-1.6-1.6h-1.5
			C42,47.4,50.7,38.8,61.6,38v1.5c0,0.9,0.7,1.6,1.6,1.6s1.6-0.7,1.6-1.6V38c4.2,0.3,8.2,1.8,11.6,4.3c0.7,0.5,1.7,0.4,2.2-0.3
			c0.5-0.7,0.4-1.7-0.3-2.2c-4.4-3.3-9.6-5-15-5c-13.8,0-25.1,11.2-25.1,25.1S49.3,84.9,63.1,84.9z"/>
		<linearGradient id="SVGID_4_" gradientUnits="userSpaceOnUse" x1="72.974" y1="52.4381" x2="61.1276" y2="65.7192">
			<stop  offset="4.102398e-07" style="stop-color:#FF7518"/>
			<stop  offset="0.1598" style="stop-color:#FF6D17"/>
			<stop  offset="0.5101" style="stop-color:#FF5F15"/>
			<stop  offset="1" style="stop-color:#FF4433"/>
		</linearGradient>
		<path class="st5" d="M63.1,44.2c-0.9,0-1.6,0.7-1.6,1.6v14.1c0,0,0,0,0,0c0,0,0,0.1,0,0.1c0,0,0,0,0,0.1c0,0,0,0.1,0,0.1
			c0,0,0,0,0,0.1c0,0,0,0.1,0,0.1c0,0,0,0.1,0,0.1c0,0,0,0,0,0.1c0,0,0,0.1,0,0.1c0,0,0,0,0,0.1c0,0,0,0.1,0,0.1c0,0,0,0,0,0
			l7.8,12.5c0.3,0.5,0.8,0.7,1.3,0.7c0.3,0,0.6-0.1,0.8-0.2c0.7-0.5,1-1.4,0.5-2.2l-7.6-12.2V45.8C64.7,44.9,64,44.2,63.1,44.2z"/>
	</g>
	<linearGradient id="SVGID_5_" gradientUnits="userSpaceOnUse" x1="94.1459" y1="31.4291" x2="29.5978" y2="103.7945">
		<stop  offset="4.102398e-07" style="stop-color:#FF7518"/>
		<stop  offset="0.1598" style="stop-color:#FF6D17"/>
		<stop  offset="0.5101" style="stop-color:#FF5F15"/>
		<stop  offset="1" style="stop-color:#FF4433"/>
	</linearGradient>
	<path class="st6" d="M104.3,89.3C89.3,74.2,77.1,52.8,75.4,49.9v-6.5c0-1.3,0.3-3.4,0.8-6.3c0.2-0.8-0.4-1.6-1.2-1.7
		c-0.8-0.2-1.6,0.4-1.7,1.2c-0.4,2.2-0.7,4-0.8,5.4H47.5c-0.4-5-2.7-14-3.3-16.2c0.5-1.3,1.4-2.1,2.6-2.5c3.8-1.4,10.3,1.5,12.5,2.7
		c0.5,0.3,1,0.3,1.5,0c2.2-1.2,8.7-4.2,12.5-2.7c1.2,0.4,2,1.3,2.6,2.5c-0.2,0.8-0.7,2.8-1.2,5c-0.2,0.8,0.3,1.6,1.1,1.8
		c0.8,0.2,1.6-0.3,1.8-1.1c0.7-3,1.3-5.4,1.3-5.4c0.1-0.3,0.1-0.6,0-0.9c-0.6-1.8-1.7-3.2-3.2-4.1c-0.1-2.1-0.9-7-5-10.5
		c-0.3-0.3-0.8-0.4-1.2-0.3c-0.4,0.1-0.8,0.3-1,0.7c-0.1,0.2-2.9,5-3.4,9.9c-0.2,0.1-0.5,0.1-0.7,0.2c-1.9,0.7-3.5,1.4-4.4,1.9
		c-0.9-0.5-2.5-1.2-4.4-1.9c-0.2-0.1-0.5-0.2-0.7-0.2c-0.4-4.9-3.2-9.7-3.3-9.9c-0.2-0.4-0.6-0.6-1-0.7c-0.4-0.1-0.9,0.1-1.2,0.3
		c-4.1,3.5-4.8,8.4-5,10.5c-1.5,0.9-2.5,2.3-3.2,4.1c-0.1,0.3-0.1,0.6,0,0.9c0,0.1,3.4,12.8,3.4,17.4v6.5
		c-1.6,2.9-13.8,24.3-28.9,39.3c-0.3,0.3-0.5,0.7-0.4,1.1c0,0.4,0.2,0.8,0.5,1.1c0.2,0.1,3.8,3,10,6.3c0,0,0,0,0,0
		c-0.3,0.3-0.4,0.7-0.3,1.1c0.1,0.4,0.3,0.8,0.6,1c0.1,0.1,2.9,2,7.6,4.2c0.2,0.1,0.4,0.1,0.6,0.1c0.6,0,1.1-0.3,1.4-0.9
		c0.3-0.7,0-1.6-0.7-2c-2.6-1.2-4.6-2.3-5.8-3.1c12.1-15.9,21.5-37.6,21.6-37.9c0.3-0.8,0-1.6-0.8-1.9c-0.8-0.3-1.6,0-2,0.8
		c-0.1,0.2-9,20.7-20.4,36.1c-4-2.1-7-4.1-8.6-5.2c14.2-14.6,25.6-34.2,28-38.4h26.2c2.3,4.1,13.8,23.7,28,38.4
		c-1.6,1.1-4.5,3.1-8.6,5.2C81,79.9,72.1,59.5,72,59.3c-0.3-0.8-1.2-1.1-1.9-0.8c-0.8,0.3-1.1,1.2-0.8,1.9c0.1,0.2,9.6,22,21.6,37.9
		c-3.8,2.3-15.6,8.7-30.9,8.7c-6.6,0-13.2-1.2-19.8-3.5c-0.8-0.3-1.6,0.1-1.9,0.9c-0.3,0.8,0.1,1.6,0.9,1.9
		c6.8,2.4,13.8,3.6,20.7,3.6c19.6,0,33.4-9.7,34-10.1c0.3-0.2,0.5-0.6,0.6-1c0.1-0.4-0.1-0.8-0.3-1.1c0,0,0,0,0,0
		c6.2-3.2,9.8-6.2,10-6.3c0.3-0.3,0.5-0.7,0.5-1.1C104.8,90,104.6,89.6,104.3,89.3z M70.1,14.1c1.5,1.9,2.2,4.2,2.4,5.8
		c-1.3-0.2-2.7-0.2-4.3,0.1C68.5,17.8,69.4,15.6,70.1,14.1z M49.9,14.1c0.7,1.5,1.6,3.6,1.9,5.9c-1.6-0.3-3.1-0.3-4.3-0.1
		C47.7,18.3,48.4,16.1,49.9,14.1z M72.5,48.8H47.5v-4h24.9V48.8z"/>
	<linearGradient id="SVGID_6_" gradientUnits="userSpaceOnUse" x1="96.6468" y1="24.0572" x2="24.8453" y2="104.5544">
		<stop  offset="4.102398e-07" style="stop-color:#FF7518"/>
		<stop  offset="0.1598" style="stop-color:#FF6D17"/>
		<stop  offset="0.5101" style="stop-color:#FF5F15"/>
		<stop  offset="1" style="stop-color:#FF4433"/>
	</linearGradient>
	<path class="st7" d="M93.7,103.4c-5.1-2.4-9.4-18-10.6-23.9c-2.4-15.4-7-21.3-9.3-23.3c1.5-1.9,4.1-6.4,6-15.4
		c0.1-0.3,0-0.5-0.1-0.8c0-0.1-2.6-6.3-2.6-11.8l4.2-16.9c0.1-0.4,0-0.8-0.2-1.1c-0.2-0.3-0.6-0.5-1-0.5h-4c-0.6,0-1.1,0.4-1.3,1
		l-4,16.4c-1.9,0.7-7,3.1-10.8,8.7c-3.8-5.6-8.9-7.9-10.8-8.7l-4-16.4c-0.1-0.6-0.7-1-1.3-1h-4c-0.4,0-0.8,0.2-1,0.5
		c-0.2,0.3-0.3,0.7-0.2,1.1l4.2,16.9c0,5.6-2.6,11.8-2.6,11.8c-0.1,0.2-0.1,0.5-0.1,0.8c1.9,9,4.6,13.5,6,15.4
		c-2.2,2-6.8,8-9.3,23.3c-1.2,5.8-5.5,21.5-10.6,23.9c-0.6,0.3-0.9,1.1-0.6,1.7c0.2,0.5,0.7,0.7,1.2,0.7c0,0,0,0,0,0
		c1.5,0,2.2,0.7,3.2,1.7c1.1,1.1,2.4,2.4,5,2.4c2.6,0,4-1.3,5-2.4c1-1,1.7-1.7,3.2-1.7c1.5,0,2.3,0.7,3.2,1.7
		c1.1,1.1,2.4,2.4,5.1,2.4c2.6,0,4-1.3,5-2.4c1-1,1.7-1.7,3.2-1.7s2.3,0.7,3.2,1.7c1.1,1.1,2.4,2.4,5.1,2.4c2.6,0,4-1.3,5-2.4
		c1-1,1.7-1.7,3.2-1.7c1.5,0,2.3,0.7,3.2,1.7c1.1,1.1,2.4,2.4,5.1,2.4c2.6,0,4-1.3,5.1-2.4c1-1,1.7-1.7,3.2-1.7c0,0,0,0,0,0
		c0.5,0,1-0.3,1.2-0.7C94.6,104.5,94.3,103.8,93.7,103.4z M77.1,12.3h1.3l-3.6,14.5h-1.3L77.1,12.3z M41.6,12.3h1.3l3.5,14.5h-1.3
		L41.6,12.3z M42.8,40.7c0.5-1.4,2.4-6.4,2.6-11.3h2.5c1.1,0.4,7.2,2.7,11,9.5c0.3,0.6,1.1,0.8,1.8,0.5c0.2-0.1,0.4-0.3,0.5-0.5l0,0
		c3.7-6.7,9.9-9.1,11-9.5h2.5c0.3,5,2.1,9.9,2.6,11.3c-2.1,9.5-4.9,13.4-5.9,14.5H48.6C47.7,54.1,44.8,50.2,42.8,40.7z M88.1,105.7
		c-1,1-1.7,1.7-3.2,1.7s-2.3-0.7-3.2-1.7c-0.9-0.9-2-2-3.9-2.3l-1.3-9.9c-0.1-0.7-0.7-1.2-1.4-1.1c-0.7,0.1-1.2,0.7-1.1,1.4l1.2,9.6
		c-1.7,0.4-2.8,1.4-3.6,2.3c-1,1-1.7,1.7-3.2,1.7c-1.5,0-2.3-0.7-3.2-1.7c-0.9-0.9-2-1.9-3.8-2.3v-9.7c0-0.7-0.6-1.3-1.3-1.3
		c-0.7,0-1.3,0.6-1.3,1.3v9.7c-1.8,0.4-2.9,1.4-3.8,2.3c-1,1-1.7,1.7-3.2,1.7c-1.5,0-2.3-0.7-3.2-1.7c-0.9-0.9-1.9-1.9-3.6-2.3
		l1.2-9.6c0.1-0.7-0.4-1.4-1.1-1.4c-0.7-0.1-1.4,0.4-1.4,1.1l-1.3,9.9c-1.9,0.3-3,1.4-3.9,2.3c-1,1-1.7,1.7-3.2,1.7
		c-1.5,0-2.3-0.7-3.2-1.7c-0.6-0.6-1.2-1.2-2.1-1.7c2.3-2.4,4.5-6.6,6.6-12.6c2-5.8,3.1-11.1,3.1-11.3c0,0,0,0,0-0.1
		c2.7-16.9,7.9-21.5,9-22.3h23.1c1.1,0.8,6.3,5.4,9,22.3c0,0,0,0,0,0.1c0,0.2,1.2,5.5,3.1,11.3c2,6,4.2,10.2,6.6,12.6
		C89.3,104.5,88.7,105.2,88.1,105.7z"/>
	<g id="Outline" class="st0">
		<linearGradient id="SVGID_7_" gradientUnits="userSpaceOnUse" x1="100.1598" y1="28.2984" x2="26.7139" y2="110.6391">
			<stop  offset="4.102398e-07" style="stop-color:#FF7518"/>
			<stop  offset="0.1598" style="stop-color:#FF6D17"/>
			<stop  offset="0.5101" style="stop-color:#FF5F15"/>
			<stop  offset="1" style="stop-color:#FF4433"/>
		</linearGradient>
		<path class="st8" d="M110.2,104.9L102,31.7c-0.2-1.8-1.3-3.3-3-4.1l-9.9-4.2c0,0,0,0-0.1,0l0,0l-12.7-4.7l-3.1-7.7
			c-0.2-0.6-0.7-1-1.4-1c-0.1,0-0.1,0-0.2,0v0H48.4v0c-0.1,0-0.1,0-0.2,0c-0.6,0.1-1.1,0.5-1.4,1l-3.3,8.3c-0.2,0.4-0.2,0.9,0,1.3
			l6.7,15c0.4,0.8,1.4,1.2,2.2,0.8c0.1-0.1,0.3-0.1,0.4-0.2l5.6-4.5v61.4l-4.5,13.6c-6.5-0.4-12.5-3.6-16.4-8.9l-4.1-17.9V26.1
			l7.8-2.9L40,20l-8.9,3.3c-0.1,0-0.1,0-0.2,0.1l0,0l-9,4.5c-1,0.5-1.8,1.3-2.2,2.2l-9.2,18.3C10.2,49.2,10,50,10,50.7v26.8
			c0,0.8,0.2,1.5,0.5,2.2l14.7,29.3c0.4,0.8,1.4,1.2,2.2,0.7c0.1,0,0.1-0.1,0.2-0.1l10-6.7c0,0,0,0,0.1-0.1c4.7,4.5,10.9,7,17.4,7
			c0.7,0,1.4-0.5,1.6-1.1l3.4-10.3l3.4,10.3c0.2,0.7,0.9,1.1,1.6,1.1c13.8,0,25-11.2,25-25c0,0,0,0,0,0v-0.5l5,24.2
			c0.2,0.9,1.1,1.5,2,1.3c0,0,0.1,0,0.1,0l11.7-3.3C109.7,106.4,110.2,105.7,110.2,104.9L110.2,104.9z M27.3,105.9L13.5,78.3
			c-0.1-0.2-0.2-0.5-0.2-0.7V50.7c0-0.3,0.1-0.5,0.2-0.7l9.2-18.3c0.2-0.3,0.4-0.6,0.7-0.7l6.6-3.3v41.3l-3.4-11.1l-3.2,1l6.7,21.6
			l2.8,12.2l-7.1,4.2l1.7,2.9l6.2-3.7l1.1,4.8L27.3,105.9z M73.3,19.9l-5.5,12.4l-5.4-4.3l9-12.9L73.3,19.9z M60.1,25.3l-2.6-3.8
			h5.3L60.1,25.3z M65.1,18.2h-9.9l-3.5-5h17L65.1,18.2z M52.4,32.3l-5.5-12.4l1.9-4.8l9,12.9L52.4,32.3z M86.8,85
			c0,11.5-9,21-20.5,21.7l-4.5-13.6V31.7l5.6,4.5c0.7,0.6,1.8,0.5,2.3-0.3c0.1-0.1,0.2-0.2,0.2-0.4L76,22l10.8,4.1L86.8,85z
			 M98.1,106.3l-7.9-38.1V27.4l7.6,3.2c0.6,0.2,0.9,0.8,1,1.4l7.2,64.8l-6.2,1.5l0.8,3.2l5.7-1.4l0.4,3.6L98.1,106.3z"/>
		<linearGradient id="SVGID_8_" gradientUnits="userSpaceOnUse" x1="82.077" y1="46.3128" x2="68.1324" y2="61.9462">
			<stop  offset="4.102398e-07" style="stop-color:#FF7518"/>
			<stop  offset="0.1598" style="stop-color:#FF6D17"/>
			<stop  offset="0.5101" style="stop-color:#FF5F15"/>
			<stop  offset="1" style="stop-color:#FF4433"/>
		</linearGradient>
		<path class="st9" d="M81.8,46.6H68.4c-0.9,0-1.7,0.7-1.7,1.7V60c0,0.6,0.4,1.2,0.9,1.5l6.7,3.3c0.5,0.2,1,0.2,1.5,0l6.7-3.3
			c0.6-0.3,0.9-0.9,0.9-1.5V48.3C83.5,47.4,82.7,46.6,81.8,46.6z M80.1,58.9l-5,2.5l-5-2.5v-9h10V58.9z"/>
		<linearGradient id="SVGID_9_" gradientUnits="userSpaceOnUse" x1="54.9721" y1="39.8504" x2="51.8342" y2="43.3683">
			<stop  offset="4.102398e-07" style="stop-color:#FF7518"/>
			<stop  offset="0.1598" style="stop-color:#FF6D17"/>
			<stop  offset="0.5101" style="stop-color:#FF5F15"/>
			<stop  offset="1" style="stop-color:#FF4433"/>
		</linearGradient>
		<path class="st10" d="M51.7,39.9h3.3v3.3h-3.3V39.9z"/>
		<linearGradient id="SVGID_10_" gradientUnits="userSpaceOnUse" x1="54.9721" y1="56.5439" x2="51.8342" y2="60.0618">
			<stop  offset="4.102398e-07" style="stop-color:#FF7518"/>
			<stop  offset="0.1598" style="stop-color:#FF6D17"/>
			<stop  offset="0.5101" style="stop-color:#FF5F15"/>
			<stop  offset="1" style="stop-color:#FF4433"/>
		</linearGradient>
		<path class="st11" d="M51.7,56.6h3.3V60h-3.3V56.6z"/>
		<linearGradient id="SVGID_11_" gradientUnits="userSpaceOnUse" x1="54.9721" y1="73.2375" x2="51.8342" y2="76.7553">
			<stop  offset="4.102398e-07" style="stop-color:#FF7518"/>
			<stop  offset="0.1598" style="stop-color:#FF6D17"/>
			<stop  offset="0.5101" style="stop-color:#FF5F15"/>
			<stop  offset="1" style="stop-color:#FF4433"/>
		</linearGradient>
		<path class="st12" d="M51.7,73.3h3.3v3.3h-3.3V73.3z"/>
		<linearGradient id="SVGID_12_" gradientUnits="userSpaceOnUse" x1="54.9721" y1="89.931" x2="51.8342" y2="93.4488">
			<stop  offset="4.102398e-07" style="stop-color:#FF7518"/>
			<stop  offset="0.1598" style="stop-color:#FF6D17"/>
			<stop  offset="0.5101" style="stop-color:#FF5F15"/>
			<stop  offset="1" style="stop-color:#FF4433"/>
		</linearGradient>
		<path class="st13" d="M51.7,90h3.3v3.3h-3.3V90z"/>
	</g>
	<g>
		<g>
			<linearGradient id="SVGID_13_" gradientUnits="userSpaceOnUse" x1="93.4003" y1="19.0406" x2="27.7664" y2="92.6233">
				<stop  offset="4.102398e-07" style="stop-color:#FF7518"/>
				<stop  offset="0.1598" style="stop-color:#FF6D17"/>
				<stop  offset="0.5101" style="stop-color:#FF5F15"/>
				<stop  offset="1" style="stop-color:#FF4433"/>
			</linearGradient>
			<path class="st14" d="M108.4,69.6c-0.5-0.4-1.1-0.6-1.7-0.6c0.1-6.3-0.5-12.6-1.8-18.7c-1-5-2.1-9.1-2.6-11.2
				c0.5-0.8,0.6-1.8,0.4-2.7l-2.8-9.8c0-0.7-0.2-1.4-0.6-2c0-0.1-0.1-0.1-0.1-0.2c-1.1-1.6-3.1-2.4-5-1.8
				c-8.8,2.5-33.9,2.5-34.2,2.5s-25.3,0-34.1-2.5c-1.9-0.6-3.9,0.2-5,1.8c0,0.1-0.1,0.1-0.1,0.2c-0.4,0.7-0.6,1.4-0.6,2.2l-2.8,9.7
				c-0.3,0.9-0.1,1.9,0.4,2.7c-0.6,2.1-1.7,6.2-2.6,11.2c-1.3,6.1-1.9,12.4-1.8,18.7c-0.6,0-1.2,0.2-1.7,0.6
				c-0.9,0.6-1.4,1.6-1.4,2.7v3.1c0,1.4,0.9,2.6,2.2,3.1c2.2,0.8,7.1,2.6,15.4,6.2c8,3.6,15.8,7.7,23.4,12.4c1.5,0.9,3.5,0.5,4.5-1
				l0.7-1c0.9-1.3,1.1-3,0.5-4.4c0.4-1.5,1.7-2.5,3.2-2.5c1.5,0,2.8,1,3.2,2.5c-0.6,1.5-0.4,3.2,0.5,4.5l0.7,1c1,1.5,3,1.9,4.5,1
				c7.5-4.6,15.3-8.7,23.4-12.4c8.4-3.6,13.3-5.4,15.4-6.2c1.3-0.5,2.2-1.7,2.2-3.1v-3.1C109.8,71.2,109.3,70.2,108.4,69.6z
				 M101.3,49.2c-3.4,1.8-14.9,7.4-18.3,1.8l-2.6-5.2c7.8-1.7,15-3.7,18.9-4.9l0,0C99.9,42.7,100.6,45.7,101.3,49.2z M97.6,30.8
				l1.9,6.5c-8.4,2.6-17,4.8-25.7,6.4l-0.7-6.5c8-1.4,16-3.4,23.7-5.9C97.1,31.1,97.4,31,97.6,30.8z M23.4,26.6
				c0-0.1,0.1-0.2,0.1-0.3c0,0,0-0.1,0.1-0.1c0.3-0.4,0.8-0.5,1.3-0.4c9.3,2.6,34,2.7,35.1,2.7c1,0,25.8,0,35.1-2.7
				c0.5-0.1,1,0,1.3,0.4c0,0,0,0.1,0.1,0.1c0.1,0.1,0.1,0.2,0.1,0.3c0,0.2,0,0.3,0,0.5c0,0.5-0.4,0.9-0.8,1c-7.9,2.6-15.9,4.5-24,6
				c-0.7-0.6-1.6-0.8-2.4-0.7L66,33.7c-0.9,0.1-1.7,0.6-2.3,1.3c-1.2,0.1-2.5,0.1-3.8,0.1s-2.5-0.1-3.8-0.1
				c-0.5-0.7-1.4-1.2-2.3-1.3l-3.3-0.4c-0.9-0.1-1.7,0.2-2.4,0.7c-8.1-1.4-16.2-3.4-24-6c-0.5-0.1-0.8-0.5-0.8-1
				C23.4,26.9,23.4,26.7,23.4,26.6z M67.4,46.2l-1-9.3l3.3-0.4l0,0l1,9.2c0,0,0,0,0,0l0,0L67.4,46.2z M68.3,49.5v13.8
				c0,3.7-3,6.6-6.6,6.6V48.3c1,0,2-0.1,3-0.2c0.6,0.9,1.6,1.4,2.7,1.4c0.1,0,0.2,0,0.4,0L68.3,49.5z M49.3,45.8l1-9.2l3.3,0.4
				l-1,9.3h0L49.3,45.8L49.3,45.8C49.3,45.9,49.3,45.8,49.3,45.8z M22.4,30.8c0.3,0.2,0.5,0.3,0.8,0.4c7.8,2.5,15.7,4.5,23.7,5.9
				l-0.7,6.5c-8.7-1.6-17.3-3.7-25.7-6.4L22.4,30.8z M20.6,40.8c3.9,1.2,11,3.3,18.9,4.9L37,50.8c-3.4,5.7-14.9,0.1-18.3-1.7
				C19.4,45.7,20.1,42.7,20.6,40.8z M53.5,93.3l-0.6,1c-7.7-4.7-15.6-8.9-23.8-12.6c-8.5-3.6-13.4-5.5-15.6-6.3v-3.1l0,0
				c5.7,2,20,7.2,29.1,12.4c4.5,2.6,8,4.7,10.5,6.3c0.4,0.2,0.6,0.6,0.7,1C53.9,92.5,53.8,92.9,53.5,93.3z M58.3,85.2
				c-1.6,0.4-3,1.4-3.9,2.8l0,0c-2.5-1.6-5.9-3.7-10.2-6.1c-8.9-4.7-18.1-8.7-27.5-11.9c-0.3-5.8,0.2-11.6,1.3-17.3
				c3,1.5,8.6,4,13.7,4c3.3,0.2,6.5-1.4,8.2-4.2l3-6c1.1,0.2,2.2,0.4,3.3,0.6c0.4,1.2,1.5,2,2.7,2.1l3.3,0.4c0.1,0,0.2,0,0.4,0
				c1.1,0,2.1-0.5,2.7-1.4c1,0.1,2.1,0.1,3,0.2L58.3,85.2L58.3,85.2z M56.1,44.9l0.7-6.6c1.1,0.1,2.1,0.1,3.2,0.1s2.1,0,3.2-0.1
				l0.7,6.6C62.5,45,61.2,45,60,45S57.5,45,56.1,44.9z M61.7,85.2V73.3c5.5,0,10-4.5,10-10V49.1c1-0.3,1.8-1,2.2-2
				c1.1-0.2,2.2-0.4,3.3-0.6l3.1,6.1c1.7,2.8,4.8,4.3,8.1,4.1c5.1,0,10.8-2.5,13.7-4.1c1.2,5.7,1.6,11.5,1.3,17.3
				c-9.5,3.3-18.7,7.2-27.5,11.9c-4.3,2.5-7.7,4.5-10.2,6.1C64.7,86.6,63.3,85.6,61.7,85.2z M90.9,81.7c-8.2,3.7-16.1,7.9-23.8,12.6
				l-0.7-1c-0.1-0.2-0.2-0.4-0.2-0.7c0.3-0.3,0.4-0.7,0.4-1.1c0-0.1,0-0.2,0-0.2c0.1-0.1,0.2-0.2,0.3-0.3c2.5-1.6,6-3.7,10.5-6.3
				c8.6-4.9,21.8-9.8,28.1-12.1l0,0c0.4-0.1,0.7-0.2,1-0.4v0l0,3.1C104.3,76.2,99.4,78.1,90.9,81.7z"/>
		</g>
	</g>
</g>
<g id="Layer_2">
</g>
</svg>
