<?xml version="1.0" encoding="utf-8"?>
<!-- Generator: Adobe Illustrator 25.2.3, SVG Export Plug-In . SVG Version: 6.00 Build 0)  -->
<svg version="1.1" xmlns="http://www.w3.org/2000/svg" xmlns:xlink="http://www.w3.org/1999/xlink" x="0px" y="0px"
	 viewBox="0 0 120 120" style="enable-background:new 0 0 120 120;" xml:space="preserve">
<style type="text/css">
	.st0{display:none;}
	.st1{display:inline;}
	.st2{fill:url(#SVGID_1_);}
	.st3{fill:url(#SVGID_2_);}
	.st4{fill:url(#SVGID_3_);}
	.st5{fill:url(#SVGID_4_);}
</style>
<g id="Layer_1">
	<g class="st0">
		<g class="st1">
			<linearGradient id="SVGID_1_" gradientUnits="userSpaceOnUse" x1="103.5615" y1="14.2956" x2="5.1786" y2="124.5935">
				<stop  offset="4.102398e-07" style="stop-color:#FF7518"/>
				<stop  offset="0.1598" style="stop-color:#FF6D17"/>
				<stop  offset="0.5101" style="stop-color:#FF5F15"/>
				<stop  offset="1" style="stop-color:#FF4433"/>
			</linearGradient>
			<path class="st2" d="M109.5,36.8C109.4,36.7,109.4,36.7,109.5,36.8l-20.7-20c-0.2-0.2-0.4-0.3-0.6-0.4l-14.9-5.8
				c-1-0.4-2.1,0.2-2.5,1.3c-0.1,0.2-0.1,0.4-0.1,0.6c0,0.5-0.6,11.3-10.6,11.5c-10-0.2-10.6-11-10.6-11.5c-0.1-1.2-1-2.1-2.1-2
				c-0.2,0-0.4,0.1-0.5,0.1l-14.9,5.9c-0.2,0.1-0.5,0.2-0.6,0.4L10.7,36.7c-0.8,0.8-0.8,2.2-0.1,3c0,0,0,0.1,0.1,0.1l16.3,18v49.1
				c0,1.2,0.9,2.1,2,2.1h62.1c1.1,0,2-1,2-2.1V57.7l16.3-18C110.2,39,110.2,37.6,109.5,36.8z M93,51.7v-9.9c0-1.2-0.9-2.1-2-2.1
				s-2,1-2,2.1v62.9H30.9V41.7c0-1.2-0.9-2.1-2-2.1s-2,1-2,2.1v9.9L14.9,38.4l18.7-18.2l12.3-4.8c1.5,8.5,9.1,14.1,16.9,12.5
				c5.8-1.2,10.3-6.2,11.4-12.5l12.3,4.8l18.6,18.2L93,51.7z"/>
		</g>
	</g>
	<g>
		<linearGradient id="SVGID_2_" gradientUnits="userSpaceOnUse" x1="94.3862" y1="24.8241" x2="31.8809" y2="94.8993">
			<stop  offset="4.102398e-07" style="stop-color:#FF7518"/>
			<stop  offset="0.1598" style="stop-color:#FF6D17"/>
			<stop  offset="0.5101" style="stop-color:#FF5F15"/>
			<stop  offset="1" style="stop-color:#FF4433"/>
		</linearGradient>
		<path class="st3" d="M94.5,59.9c0-8-3-15.2-7.9-20.8c0,0,0-0.1,0-0.1l-4-12c-0.4-1.2-1.2-2.1-2.2-2.6v-10c0-2.6-2.1-4.7-4.7-4.7
			H50.6c-2.6,0-4.7,2.1-4.7,4.7v10c-1,0.6-1.8,1.5-2.2,2.6l-4,12c0,0,0,0.1,0,0.1c-2.9,3.3-5.1,7.1-6.4,11.4h-3
			c-2.6,0-4.7,2.1-4.7,4.7v9.4c0,2.6,2.1,4.7,4.7,4.7h3c1.3,4.2,3.6,8.1,6.4,11.4c0,0,0,0.1,0,0.1l4,12c0.4,1.2,1.2,2.1,2.2,2.6v10
			c0,2.6,2.1,4.7,4.7,4.7h25.1c2.6,0,4.7-2.1,4.7-4.7v-10c1-0.6,1.8-1.5,2.2-2.6l4-12c0,0,0-0.1,0-0.1
			C91.5,75.1,94.5,67.8,94.5,59.9z M46.7,28c0.2-0.6,0.8-1.1,1.5-1.1h19.7c0.9,0,1.6-0.7,1.6-1.6c0-0.9-0.7-1.6-1.6-1.6H49v-9.4
			c0-0.9,0.7-1.6,1.6-1.6h25.1c0.9,0,1.6,0.7,1.6,1.6v9.4h-3.1c-0.9,0-1.6,0.7-1.6,1.6c0,0.9,0.7,1.6,1.6,1.6h4
			c0.7,0,1.3,0.4,1.5,1.1l2.2,6.7c-5.2-3.9-11.7-6.2-18.7-6.2s-13.5,2.3-18.7,6.2L46.7,28z M30.2,66.1c-0.9,0-1.6-0.7-1.6-1.6v-9.4
			c0-0.9,0.7-1.6,1.6-1.6h2.2c-0.4,2-0.6,4.1-0.6,6.3s0.2,4.2,0.6,6.3H30.2z M63.1,31.7c15.6,0,28.2,12.7,28.2,28.2
			S78.7,88.1,63.1,88.1S34.9,75.4,34.9,59.9S47.6,31.7,63.1,31.7z M79.6,91.7c-0.2,0.6-0.8,1.1-1.5,1.1h-4c-0.9,0-1.6,0.7-1.6,1.6
			c0,0.9,0.7,1.6,1.6,1.6h3.1v9.4c0,0.9-0.7,1.6-1.6,1.6H50.6c-0.9,0-1.6-0.7-1.6-1.6v-9.4h18.8c0.9,0,1.6-0.7,1.6-1.6
			c0-0.9-0.7-1.6-1.6-1.6H48.2c-0.7,0-1.3-0.4-1.5-1.1L44.4,85c5.2,3.9,11.7,6.2,18.7,6.2c7,0,13.5-2.3,18.7-6.2L79.6,91.7z"/>
		<linearGradient id="SVGID_3_" gradientUnits="userSpaceOnUse" x1="79.7655" y1="41.2156" x2="46.4539" y2="78.5615">
			<stop  offset="4.102398e-07" style="stop-color:#FF7518"/>
			<stop  offset="0.1598" style="stop-color:#FF6D17"/>
			<stop  offset="0.5101" style="stop-color:#FF5F15"/>
			<stop  offset="1" style="stop-color:#FF4433"/>
		</linearGradient>
		<path class="st4" d="M63.1,84.9c13.8,0,25.1-11.2,25.1-25.1c0-5.5-1.7-10.7-5-15c-0.5-0.7-1.5-0.8-2.2-0.3
			c-0.7,0.5-0.8,1.5-0.3,2.2c2.6,3.4,4,7.4,4.3,11.6h-1.5c-0.9,0-1.6,0.7-1.6,1.6s0.7,1.6,1.6,1.6H85C84.2,72.3,75.5,81,64.7,81.7
			v-1.5c0-0.9-0.7-1.6-1.6-1.6s-1.6,0.7-1.6,1.6v1.5C50.7,81,42,72.3,41.3,61.4h1.5c0.9,0,1.6-0.7,1.6-1.6s-0.7-1.6-1.6-1.6h-1.5
			C42,47.4,50.7,38.8,61.6,38v1.5c0,0.9,0.7,1.6,1.6,1.6s1.6-0.7,1.6-1.6V38c4.2,0.3,8.2,1.8,11.6,4.3c0.7,0.5,1.7,0.4,2.2-0.3
			c0.5-0.7,0.4-1.7-0.3-2.2c-4.4-3.3-9.6-5-15-5c-13.8,0-25.1,11.2-25.1,25.1S49.3,84.9,63.1,84.9z"/>
		<linearGradient id="SVGID_4_" gradientUnits="userSpaceOnUse" x1="72.974" y1="52.4381" x2="61.1276" y2="65.7192">
			<stop  offset="4.102398e-07" style="stop-color:#FF7518"/>
			<stop  offset="0.1598" style="stop-color:#FF6D17"/>
			<stop  offset="0.5101" style="stop-color:#FF5F15"/>
			<stop  offset="1" style="stop-color:#FF4433"/>
		</linearGradient>
		<path class="st5" d="M63.1,44.2c-0.9,0-1.6,0.7-1.6,1.6v14.1c0,0,0,0,0,0c0,0,0,0.1,0,0.1c0,0,0,0,0,0.1c0,0,0,0.1,0,0.1
			c0,0,0,0,0,0.1c0,0,0,0.1,0,0.1c0,0,0,0.1,0,0.1c0,0,0,0,0,0.1c0,0,0,0.1,0,0.1c0,0,0,0,0,0.1c0,0,0,0.1,0,0.1c0,0,0,0,0,0
			l7.8,12.5c0.3,0.5,0.8,0.7,1.3,0.7c0.3,0,0.6-0.1,0.8-0.2c0.7-0.5,1-1.4,0.5-2.2l-7.6-12.2V45.8C64.7,44.9,64,44.2,63.1,44.2z"/>
	</g>
</g>
<g id="Layer_2">
</g>
</svg>
